<svg width="34" height="34" viewBox="0 0 34 34" fill="none" xmlns="http://www.w3.org/2000/svg">
<g clip-path="url(#clip0_127_2)">
<path d="M11.9034 27.908C11.9034 28.0486 11.7458 28.1611 11.547 28.1611C11.3208 28.1822 11.1631 28.0697 11.1631 27.908C11.1631 27.7674 11.3208 27.6549 11.5196 27.6549C11.7252 27.6338 11.9034 27.7463 11.9034 27.908ZM9.77157 27.5916C9.72359 27.7322 9.86069 27.8939 10.0663 27.9361C10.2446 28.0064 10.4502 27.9361 10.4913 27.7955C10.5325 27.6549 10.4022 27.4932 10.1966 27.4299C10.0183 27.3807 9.81956 27.451 9.77157 27.5916ZM12.8014 27.4721C12.6026 27.5213 12.4655 27.6549 12.4861 27.8166C12.5067 27.9572 12.6849 28.0486 12.8905 27.9994C13.0893 27.9502 13.2264 27.8166 13.2058 27.676C13.1853 27.5424 13.0002 27.451 12.8014 27.4721ZM17.3119 0.53125C7.80423 0.53125 0.53125 7.93436 0.53125 17.6857C0.53125 25.4825 5.31593 32.1544 12.1502 34.5026C13.0276 34.6643 13.3361 34.1089 13.3361 33.6519C13.3361 33.216 13.3155 30.8116 13.3155 29.3352C13.3155 29.3352 8.51714 30.3898 7.50948 27.2401C7.50948 27.2401 6.72802 25.1942 5.60383 24.6669C5.60383 24.6669 4.03407 23.5632 5.71351 23.5842C5.71351 23.5842 7.42036 23.7249 8.35948 25.3981C9.86069 28.1119 12.3764 27.3315 13.3567 26.8675C13.5143 25.7426 13.9599 24.9622 14.4534 24.4982C10.6216 24.0623 6.75544 23.4928 6.75544 16.7295C6.75544 14.7961 7.27641 13.8259 8.37319 12.5885C8.19496 12.1316 7.6123 10.2474 8.55141 7.81484C9.98407 7.35786 13.2813 9.71308 13.2813 9.71308C14.6522 9.31937 16.126 9.11549 17.5861 9.11549C19.0462 9.11549 20.52 9.31937 21.8909 9.71308C21.8909 9.71308 25.1881 7.35083 26.6208 7.81484C27.5599 10.2544 26.9772 12.1316 26.799 12.5885C27.8958 13.8329 28.5675 14.8032 28.5675 16.7295C28.5675 23.5139 24.53 24.0553 20.6982 24.4982C21.3288 25.0536 21.8635 26.1082 21.8635 27.7604C21.8635 30.1296 21.8429 33.0614 21.8429 33.6379C21.8429 34.0948 22.1583 34.6502 23.0288 34.4885C29.8837 32.1544 34.5313 25.4825 34.5313 17.6857C34.5313 7.93436 26.8196 0.53125 17.3119 0.53125ZM7.19415 24.7794C7.10504 24.8497 7.12561 25.0114 7.24214 25.145C7.35181 25.2575 7.50948 25.3067 7.59859 25.2153C7.6877 25.145 7.66714 24.9833 7.55061 24.8497C7.44093 24.7372 7.28327 24.688 7.19415 24.7794ZM6.45383 24.21C6.40585 24.3014 6.4744 24.4138 6.61149 24.4841C6.72117 24.5545 6.85827 24.5334 6.90625 24.4349C6.95423 24.3435 6.88569 24.231 6.74859 24.1607C6.61149 24.1186 6.50181 24.1397 6.45383 24.21ZM8.6748 26.7128C8.56512 26.8042 8.60625 27.0151 8.76391 27.1487C8.92157 27.3104 9.12036 27.3315 9.20948 27.219C9.29859 27.1276 9.25746 26.9167 9.12036 26.7831C8.96956 26.6214 8.76391 26.6003 8.6748 26.7128ZM7.89335 25.6793C7.78367 25.7496 7.78367 25.9324 7.89335 26.0941C8.00302 26.2558 8.18811 26.3261 8.27722 26.2558C8.3869 26.1644 8.3869 25.9816 8.27722 25.8199C8.18125 25.6582 8.00302 25.5879 7.89335 25.6793Z" fill="#E1BEBE"/>
</g>
<defs>
<clipPath id="clip0_127_2">
<rect width="34" height="34" fill="white"/>
</clipPath>
</defs>
</svg>
