<svg width="96" height="96" viewBox="0 0 96 96" fill="none" xmlns="http://www.w3.org/2000/svg">
<path d="M78.4125 33.225C77.4 32.8875 76.3875 32.5688 75.375 32.2688C75.5437 31.575 75.6937 30.8813 75.8438 30.1875C78.15 19.0125 76.6312 10.0313 71.5125 7.06876C66.5812 4.23751 58.5375 7.18126 50.4 14.2688C49.5937 14.9625 48.8062 15.6938 48.0562 16.425C47.55 15.9375 47.025 15.45 46.5 14.9813C37.9688 7.40626 29.4188 4.21876 24.3 7.20001C19.3875 10.05 17.925 18.5063 19.9875 29.0813C20.1937 30.1313 20.4188 31.1625 20.6813 32.2125C19.4813 32.55 18.3 32.925 17.1937 33.3188C7.18125 36.7875 0 42.2625 0 47.925C0 53.775 7.65 59.6438 18.0563 63.2063C18.9 63.4875 19.7438 63.7688 20.6063 64.0125C20.325 65.1375 20.0813 66.2438 19.8563 67.3875C17.8875 77.7938 19.425 86.0438 24.3375 88.875C29.4 91.8 37.9125 88.8 46.2 81.5438C46.8562 80.9625 47.5125 80.3625 48.1687 79.725C48.9937 80.5313 49.8563 81.3 50.7188 82.05C58.7437 88.95 66.675 91.7438 71.5688 88.9125C76.6313 85.9875 78.2813 77.1188 76.1438 66.3188C75.975 65.4938 75.7875 64.65 75.5813 63.7875C76.1813 63.6188 76.7625 63.4313 77.3438 63.2438C88.1625 59.6625 96 53.8688 96 47.925C96 42.2438 88.6125 36.7313 78.4125 33.225V33.225ZM53.0437 17.3063C60.0187 11.2313 66.525 8.85001 69.4875 10.5563C72.6563 12.375 73.875 19.725 71.8875 29.3813C71.7562 30.0188 71.625 30.6375 71.4563 31.2563C67.2938 30.3188 63.075 29.6438 58.8375 29.2688C56.4 25.7813 53.7375 22.4438 50.85 19.3125C51.5813 18.6188 52.2937 17.9625 53.0437 17.3063V17.3063ZM31.35 57.6563C32.3062 59.2875 33.2812 60.9188 34.3125 62.5125C31.3875 62.1938 28.4813 61.725 25.6125 61.1063C26.4375 58.4063 27.4687 55.6125 28.6687 52.7625C29.5312 54.4125 30.4125 56.0438 31.35 57.6563V57.6563ZM25.6687 35.1C28.3687 34.5 31.2375 34.0125 34.2188 33.6375C33.225 35.1938 32.25 36.7875 31.3313 38.4C30.4125 39.9938 29.5125 41.625 28.6687 43.275C27.4875 40.4813 26.4937 37.7438 25.6687 35.1ZM30.8063 48.0188C32.0438 45.4313 33.3937 42.9 34.8187 40.4063C36.2437 37.9125 37.7813 35.4938 39.3938 33.1125C42.2063 32.9063 45.075 32.7938 48 32.7938C50.925 32.7938 53.8125 32.9063 56.6062 33.1125C58.2 35.475 59.7188 37.8938 61.1625 40.3688C62.6063 42.8438 63.9562 45.375 65.2312 47.9438C63.975 50.5313 62.625 53.0813 61.1812 55.5938C59.7562 58.0875 58.2375 60.5063 56.6438 62.9063C53.85 63.1125 50.9437 63.2063 48 63.2063C45.0563 63.2063 42.2062 63.1125 39.45 62.9438C37.8187 60.5625 36.2813 58.125 34.8375 55.6313C33.3938 53.1375 32.0625 50.6063 30.8063 48.0188ZM64.6687 57.6188C65.625 55.9688 66.525 54.3 67.4062 52.6125C68.6063 55.3313 69.6562 58.0875 70.575 60.9188C67.6687 61.575 64.725 62.0813 61.7625 62.4188C62.775 60.8438 63.7312 59.2313 64.6687 57.6188ZM67.3687 43.275C66.4875 41.625 65.5875 39.975 64.65 38.3625C63.7312 36.7688 62.775 35.1938 61.7812 33.6375C64.8 34.0125 67.6875 34.5188 70.3875 35.1375C69.525 37.9125 68.5125 40.6125 67.3687 43.275V43.275ZM48.0375 22.1813C50.0063 24.3188 51.8625 26.5688 53.5875 28.8938C49.875 28.725 46.1438 28.725 42.4313 28.8938C44.2688 26.475 46.1625 24.225 48.0375 22.1813ZM26.2875 10.6875C29.4375 8.85001 36.4313 11.475 43.8 18C44.2688 18.4125 44.7375 18.8625 45.225 19.3125C42.3187 22.4438 39.6375 25.7813 37.1813 29.2688C32.9438 29.6438 28.7438 30.3 24.5813 31.2188C24.3375 30.2625 24.1312 29.2875 23.925 28.3125C22.1625 19.2375 23.325 12.3938 26.2875 10.6875V10.6875ZM21.6937 60.1125C20.9062 59.8875 20.1375 59.6438 19.3688 59.3813C15.375 58.125 10.8375 56.1375 7.55625 53.5313C5.6625 52.2188 4.3875 50.1938 4.03125 47.925C4.03125 44.4938 9.95625 40.1063 18.5062 37.125C19.575 36.75 20.6625 36.4125 21.75 36.0938C23.025 40.1625 24.5625 44.1563 26.3438 48.0188C24.5437 51.9375 22.9875 55.9875 21.6937 60.1125V60.1125ZM43.5563 78.4875C40.4625 81.3188 36.8812 83.5688 32.9812 85.1063C30.9 86.1 28.5 86.1938 26.3625 85.35C23.3813 83.625 22.1437 77.0063 23.8312 68.1C24.0375 67.05 24.2625 66 24.525 64.9688C28.725 65.8688 32.9625 66.4875 37.2562 66.8063C39.7312 70.3125 42.45 73.6688 45.3562 76.8188C44.7562 77.4 44.1563 77.9625 43.5563 78.4875ZM48.15 73.9313C46.2375 71.8688 44.325 69.5813 42.4688 67.125C44.2688 67.2 46.125 67.2375 48 67.2375C49.9313 67.2375 51.825 67.2 53.7 67.1063C51.975 69.4875 50.1187 71.7563 48.15 73.9313V73.9313ZM72.6562 79.5563C72.4875 81.8438 71.3625 83.9813 69.5625 85.425C66.5813 87.15 60.225 84.9 53.3625 79.0125C52.575 78.3375 51.7875 77.6063 50.9812 76.8563C53.85 73.6875 56.4938 70.3313 58.8938 66.8063C63.1875 66.45 67.4625 65.7938 71.6812 64.8375C71.8687 65.6063 72.0375 66.375 72.1875 67.125C73.1063 71.175 73.2563 75.3938 72.6562 79.5563V79.5563ZM76.0688 59.4C75.5438 59.5688 75.0188 59.7375 74.475 59.8875C73.1625 55.8 71.55 51.8063 69.6938 47.925C71.4938 44.1 73.0125 40.1625 74.2875 36.1313C75.2625 36.4125 76.2 36.7125 77.1 37.0125C85.8375 40.0125 91.9688 44.475 91.9688 47.8875C91.9688 51.5625 85.425 56.3063 76.0688 59.4ZM48 56.5875C52.7437 56.5875 56.5875 52.7438 56.5875 48C56.5875 43.2563 52.7437 39.4125 48 39.4125C43.2563 39.4125 39.4125 43.2563 39.4125 48C39.4125 52.7438 43.2563 56.5875 48 56.5875Z" fill="#E1BEBE"/>
</svg>
